# xmcd
# 
# Track frame offsets:
#   150
#   12820
#   34355
#   51997
#   77362
#   91940
#   111255
#   127320
#   143297
#   162695
#   177012
#   194852
#   207245
#   221095
#   242320
# 
# Disc length: 3372 seconds
# 
# Revision: 4
# Processed by: cddbd v1.5.2PL0 Copyright (c) Steve Scherf et al.
# Submitted via: Synapstar 1.0 
# 
DISCID=d30d2a0f
DTITLE=Various Artist - SCB 47556
DYEAR=1900
DGENRE=Country
TTITLE0=Charley Pride - Is Anybody Goin' To San Antone
TTITLE1=Patty Loveless - When The Fallen Angels Fly
TTITLE2=Michael Johnson - Give Me Wings
TTITLE3=K. T. Oslin - This Woman
TTITLE4=Sawyer Brown - Step That Step
TTITLE5=Steve Wariner - You Can Dream Of Me
TTITLE6=T. G. Sheppard - I'll Be Coming Back For More
TTITLE7=Lee Greenwood - Hearts Aren't Made To Break (They're Made To Love)
TTITLE8=Gary Morris - I'll Never Stop Loving You
TTITLE9=Don Williams - One Good Well
TTITLE10=Ricky Skaggs - Cajun Moon
TTITLE11=Sylvia - Drifter
TTITLE12=Vern Gosdin - I'm Still Crazy
TTITLE13=Michael Johnson - Second Hand Heart
TTITLE14=Johnny Rodriguez - Just Get Up and Close The Door
EXTD=MediaType: Karaoke CD+G Producer: Sound Choice
EXTT0=
EXTT1=
EXTT2=
EXTT3=
EXTT4=
EXTT5=
EXTT6=
EXTT7=
EXTT8=
EXTT9=
EXTT10=
EXTT11=
EXTT12=
EXTT13=
EXTT14=
PLAYORDER=
